<svg id="visual" viewBox="0 0 900 600" width="900" height="600" xmlns="http://www.w3.org/2000/svg" xmlns:xlink="http://www.w3.org/1999/xlink" version="1.1"><rect x="0" y="0" width="900" height="600" fill="#001220"></rect><defs><linearGradient id="grad1_0" x1="33.3%" y1="0%" x2="100%" y2="100%"><stop offset="20%" stop-color="#001220" stop-opacity="1"></stop><stop offset="80%" stop-color="#001220" stop-opacity="1"></stop></linearGradient></defs><defs><linearGradient id="grad2_0" x1="0%" y1="0%" x2="66.7%" y2="100%"><stop offset="20%" stop-color="#001220" stop-opacity="1"></stop><stop offset="80%" stop-color="#001220" stop-opacity="1"></stop></linearGradient></defs><g transform="translate(900, 0)"><path d="M0 324.5C-40.8 316.2 -81.6 308 -121.7 293.8C-161.8 279.6 -201.1 259.4 -229.5 229.5C-257.8 199.5 -275.2 159.7 -289.2 119.8C-303.2 79.9 -313.8 39.9 -324.5 0L0 0Z" fill="#FBAE3C"></path></g><g transform="translate(0, 600)"><path d="M0 -324.5C44 -314.6 88 -304.7 115.6 -279C143.1 -253.3 154.1 -211.9 186.7 -186.7C219.2 -161.5 273.2 -152.6 299.8 -124.2C326.4 -95.8 325.4 -47.9 324.5 0L0 0Z" fill="#FBAE3C"></path></g></svg>