<svg id="visual" viewBox="0 0 900 600" width="900" height="600" xmlns="http://www.w3.org/2000/svg" xmlns:xlink="http://www.w3.org/1999/xlink" version="1.1"><rect x="0" y="0" width="900" height="600" fill="#F7CACA"></rect><g transform="translate(-29.786845838183012 -62.111766742192216)"><path d="M114.5 -128.8C174 -114.5 265.3 -115.2 306.5 -78.3C347.8 -41.5 338.9 32.9 296.8 76C254.7 119.2 179.4 131.2 124.4 174.8C69.4 218.5 34.7 293.7 -4.3 299.7C-43.3 305.6 -86.6 242.2 -143 199C-199.5 155.9 -269 132.9 -273.5 94.6C-278 56.3 -217.5 2.7 -177 -37.6C-136.6 -77.9 -116.2 -104.9 -90 -130.1C-63.9 -155.2 -31.9 -178.6 -2.2 -175.6C27.6 -172.6 55.1 -143.2 114.5 -128.8" fill="#FCAF3C"></path></g></svg>